Cantarell-Bold.ufo
<glyph name="F" format="1">
  <advance width="583"/>
  <unicode hex="0046"/>
  <note>
    F
  </note>
  <outline>
    <contour>
      <point x="243" y="0" type="line"/>
      <point x="243" y="694" type="line"/>
      <point x="67" y="694" type="line"/>
      <point x="67" y="0" type="line"/>
    </contour>
    <contour>
      <point x="526" y="257" type="line"/>
      <point x="526" y="409" type="line"/>
      <point x="147" y="409" type="line"/>
      <point x="147" y="257" type="line"/>
    </contour>
    <contour>
      <point x="562" y="542" type="line"/>
      <point x="562" y="694" type="line"/>
      <point x="147" y="694" type="line"/>
      <point x="147" y="542" type="line"/>
    </contour>
    <contour>
      <point x="278" y="694" type="move" name="top"/>
    </contour>
    <contour>
      <point x="171" y="0" type="move" name="bottom"/>
    </contour>
  </outline>
</glyph>
<glyph name="Q" format="1">
  <advance width="760"/>
  <unicode hex="0051"/>
  <note>
    Q
  </note>
  <outline>
    <contour>
      <point x="590" y="-10"/>
      <point x="734" y="134"/>
      <point x="734" y="351" type="curve" smooth="yes"/>
      <point x="734" y="563"/>
      <point x="594" y="704"/>
      <point x="384" y="704" type="curve" smooth="yes"/>
      <point x="169" y="704"/>
      <point x="26" y="559"/>
      <point x="26" y="341" type="curve" smooth="yes"/>
      <point x="26" y="130"/>
      <point x="165" y="-10"/>
      <point x="373" y="-10" type="curve" smooth="yes"/>
    </contour>
    <contour>
      <point x="271" y="140"/>
      <point x="204" y="218"/>
      <point x="204" y="351" type="curve" smooth="yes"/>
      <point x="204" y="479"/>
      <point x="267" y="554"/>
      <point x="373" y="554" type="curve" smooth="yes"/>
      <point x="488" y="554"/>
      <point x="556" y="475"/>
      <point x="556" y="341" type="curve" smooth="yes"/>
      <point x="556" y="215"/>
      <point x="492" y="140"/>
      <point x="384" y="140" type="curve" smooth="yes"/>
    </contour>
    <contour>
      <point x="752" y="38" type="line"/>
      <point x="427" y="348" type="line"/>
      <point x="323" y="245" type="line"/>
      <point x="644" y="-63" type="line"/>
    </contour>
    <contour>
      <point x="380" y="694" type="move" name="top"/>
    </contour>
    <contour>
      <point x="380" y="0" type="move" name="bottom"/>
    </contour>
  </outline>
</glyph>
<glyph name="T" format="1">
  <advance width="620"/>
  <unicode hex="0054"/>
  <note>
    T
  </note>
  <outline>
    <contour>
      <point x="394" y="0" type="line"/>
      <point x="394" y="660" type="line"/>
      <point x="224" y="660" type="line"/>
      <point x="224" y="0" type="line"/>
    </contour>
    <contour>
      <point x="610" y="542" type="line"/>
      <point x="610" y="694" type="line"/>
      <point x="10" y="694" type="line"/>
      <point x="10" y="542" type="line"/>
    </contour>
    <contour>
      <point x="310" y="327" type="move" name="center"/>
    </contour>
    <contour>
      <point x="311" y="0" type="move" name="bottom"/>
    </contour>
    <contour>
      <point x="309" y="694" type="move" name="top"/>
    </contour>
  </outline>
</glyph>
<glyph name="X" format="1">
  <advance width="672"/>
  <unicode hex="0058"/>
  <note>
    X
  </note>
  <outline>
    <contour>
      <point x="679" y="0" type="line"/>
      <point x="387" y="416" type="line"/>
      <point x="216" y="694" type="line"/>
      <point x="11" y="694" type="line"/>
      <point x="296" y="279" type="line"/>
      <point x="470" y="0" type="line"/>
    </contour>
    <contour>
      <point x="196" y="0" type="line"/>
      <point x="331" y="233" type="line"/>
      <point x="246" y="372" type="line"/>
      <point x="-5" y="0" type="line"/>
    </contour>
    <contour>
      <point x="651" y="694" type="line"/>
      <point x="448" y="694" type="line"/>
      <point x="319" y="484" type="line"/>
      <point x="409" y="349" type="line"/>
    </contour>
    <contour>
      <point x="343" y="694" type="move" name="top"/>
    </contour>
    <contour>
      <point x="355" y="0" type="move" name="bottom"/>
    </contour>
  </outline>
</glyph>
<glyph name="Z" format="1">
  <advance width="650"/>
  <unicode hex="005A"/>
  <note>
    Z
  </note>
  <outline>
    <contour>
      <point x="625" y="0" type="line"/>
      <point x="625" y="152" type="line"/>
      <point x="168" y="152" type="line"/>
      <point x="209" y="94" type="line"/>
      <point x="620" y="591" type="line"/>
      <point x="620" y="694" type="line"/>
      <point x="40" y="694" type="line"/>
      <point x="40" y="542" type="line"/>
      <point x="484" y="542" type="line"/>
      <point x="432" y="608" type="line"/>
      <point x="22" y="111" type="line"/>
      <point x="22" y="0" type="line"/>
    </contour>
    <contour>
      <point x="331" y="694" type="move" name="top"/>
    </contour>
    <contour>
      <point x="331" y="0" type="move" name="bottom"/>
    </contour>
  </outline>
</glyph>
<glyph name="Eogonek" format="1">
  <advance width="610"/>
  <unicode hex="0118"/>
  <outline>
    <component base="E"/>
    <component base="uni0328" xOffset="58"/>
    <contour>
      <point x="305" y="694" type="move" name="top"/>
    </contour>
  </outline>
</glyph>
<glyph name="uni0302" format="1">
  <advance width="411"/>
  <unicode hex="0302"/>
  <outline>
    <contour>
      <point x="89" y="535" type="line"/>
      <point x="198" y="618" type="line"/>
      <point x="302" y="534" type="line"/>
      <point x="398" y="625" type="line"/>
      <point x="251" y="762" type="line"/>
      <point x="166" y="762" type="line"/>
      <point x="20" y="594" type="line"/>
    </contour>
    <contour>
      <point x="203" y="724" type="move" name="top"/>
    </contour>
    <contour>
      <point x="379" y="648" type="move" name="top_viet"/>
    </contour>
    <contour>
      <point x="203" y="490" type="move" name="_top"/>
    </contour>
  </outline>
</glyph>
<glyph name="uni0308" format="1">
  <advance width="538"/>
  <unicode hex="0308"/>
  <outline>
    <contour>
      <point x="203" y="557"/>
      <point x="243" y="597"/>
      <point x="243" y="656" type="curve" smooth="yes"/>
      <point x="243" y="716"/>
      <point x="203" y="756"/>
      <point x="144" y="756" type="curve" smooth="yes"/>
      <point x="85" y="756"/>
      <point x="45" y="716"/>
      <point x="45" y="656" type="curve" smooth="yes"/>
      <point x="45" y="597"/>
      <point x="85" y="557"/>
      <point x="144" y="557" type="curve" smooth="yes"/>
    </contour>
    <contour>
      <point x="453" y="557"/>
      <point x="493" y="597"/>
      <point x="493" y="656" type="curve" smooth="yes"/>
      <point x="493" y="716"/>
      <point x="453" y="756"/>
      <point x="394" y="756" type="curve" smooth="yes"/>
      <point x="335" y="756"/>
      <point x="295" y="716"/>
      <point x="295" y="656" type="curve" smooth="yes"/>
      <point x="295" y="597"/>
      <point x="335" y="557"/>
      <point x="394" y="557" type="curve" smooth="yes"/>
    </contour>
    <contour>
      <point x="269" y="726" type="move" name="top"/>
    </contour>
    <contour>
      <point x="269" y="490" type="move" name="_top"/>
    </contour>
  </outline>
</glyph>
<glyph name="uni030B" format="1">
  <advance width="517"/>
  <unicode hex="030B"/>
  <outline>
    <contour>
      <point x="480" y="697" type="line"/>
      <point x="339" y="775" type="line"/>
      <point x="254" y="579" type="line"/>
      <point x="345" y="527" type="line"/>
    </contour>
    <contour>
      <point x="262" y="697" type="line"/>
      <point x="120" y="776" type="line"/>
      <point x="35" y="579" type="line"/>
      <point x="127" y="527" type="line"/>
    </contour>
    <contour>
      <point x="215" y="799" type="move" name="top"/>
    </contour>
    <contour>
      <point x="215" y="490" type="move" name="_top"/>
    </contour>
  </outline>
</glyph>
<glyph name="uni030F" format="1">
  <advance width="517"/>
  <unicode hex="030F"/>
  <outline>
    <contour>
      <point x="250" y="579" type="line"/>
      <point x="165" y="775" type="line"/>
      <point x="24" y="697" type="line"/>
      <point x="159" y="527" type="line"/>
    </contour>
    <contour>
      <point x="469" y="579" type="line"/>
      <point x="384" y="776" type="line"/>
      <point x="242" y="697" type="line"/>
      <point x="378" y="527" type="line"/>
    </contour>
    <contour>
      <point x="301" y="799" type="move" name="top"/>
    </contour>
    <contour>
      <point x="301" y="490" type="move" name="_top"/>
    </contour>
  </outline>
</glyph>
<glyph name="commaaccentcomb" format="1">
  <advance width="258"/>
  <unicode hex="0326"/>
  <outline>
    <component base="_commaaccent" xOffset="-48"/>
    <contour>
      <point x="118" y="0" type="move" name="_bottom"/>
    </contour>
    <contour>
      <point x="118" y="-231" type="move" name="bottom"/>
    </contour>
  </outline>
</glyph>
<glyph name="uni032E" format="1">
  <advance width="469"/>
  <unicode hex="032E"/>
  <outline>
    <contour>
      <point x="336" y="-227"/>
      <point x="410" y="-165"/>
      <point x="439" y="-63" type="curve"/>
      <point x="351" y="-21" type="line"/>
      <point x="336" y="-75"/>
      <point x="302" y="-100"/>
      <point x="252" y="-100" type="curve" smooth="yes"/>
      <point x="199" y="-100"/>
      <point x="161" y="-73"/>
      <point x="136" y="-21" type="curve"/>
      <point x="27" y="-90" type="line"/>
      <point x="58" y="-172"/>
      <point x="134" y="-227"/>
      <point x="232" y="-227" type="curve" smooth="yes"/>
    </contour>
    <contour>
      <point x="233" y="0" type="move" name="_bottom"/>
    </contour>
    <contour>
      <point x="233" y="-227" type="move" name="bottom"/>
    </contour>
  </outline>
</glyph>
<glyph name="strokelongcomb" format="1">
  <advance width="879"/>
  <unicode hex="0336"/>
  <outline>
    <contour>
      <point x="811" y="275" type="line"/>
      <point x="811" y="410" type="line"/>
      <point x="68" y="410" type="line"/>
      <point x="68" y="275" type="line"/>
    </contour>
    <contour>
      <point x="440" y="343" type="move" name="_center"/>
    </contour>
  </outline>
</glyph>
<glyph name="uni041A" format="1">
  <advance width="676"/>
  <unicode hex="041A"/>
  <outline>
    <contour>
      <point x="678" y="0" type="line"/>
      <point x="453" y="393" type="line"/>
      <point x="456" y="360" type="line"/>
      <point x="670" y="694" type="line"/>
      <point x="480" y="694" type="line"/>
      <point x="275" y="363" type="line"/>
      <point x="481" y="0" type="line"/>
    </contour>
    <contour>
      <point x="243" y="0" type="line"/>
      <point x="243" y="694" type="line"/>
      <point x="68" y="694" type="line"/>
      <point x="68" y="0" type="line"/>
    </contour>
    <contour>
      <point x="331" y="285" type="line"/>
      <point x="331" y="437" type="line"/>
      <point x="152" y="437" type="line"/>
      <point x="152" y="285" type="line"/>
    </contour>
    <contour>
      <point x="342" y="694" type="move" name="top"/>
    </contour>
    <contour>
      <point x="541" y="0" type="move" name="bottomright"/>
    </contour>
  </outline>
</glyph>
<glyph name="uni0428" format="1">
  <advance width="1065"/>
  <unicode hex="0428"/>
  <outline>
    <contour>
      <point x="998" y="0" type="line"/>
      <point x="998" y="694" type="line"/>
      <point x="827" y="694" type="line"/>
      <point x="827" y="151" type="line"/>
      <point x="238" y="151" type="line"/>
      <point x="238" y="694" type="line"/>
      <point x="67" y="694" type="line"/>
      <point x="67" y="0" type="line"/>
    </contour>
    <contour>
      <point x="618" y="62" type="line"/>
      <point x="618" y="694" type="line"/>
      <point x="447" y="694" type="line"/>
      <point x="447" y="62" type="line"/>
    </contour>
  </outline>
</glyph>
<glyph name="uni043A" format="1">
  <advance width="80"/>
  <unicode hex="043A"/>
  <outline>
    <contour>
      <point x="574" y="0" type="line"/>
      <point x="414" y="278" type="line"/>
      <point x="417" y="249" type="line"/>
      <point x="569" y="490" type="line"/>
      <point x="390" y="490" type="line"/>
      <point x="247" y="251" type="line"/>
      <point x="389" y="0" type="line"/>
    </contour>
    <contour>
      <point x="220" y="0" type="line"/>
      <point x="220" y="490" type="line"/>
      <point x="55" y="490" type="line"/>
      <point x="55" y="0" type="line"/>
    </contour>
    <contour>
      <point x="297" y="176" type="line"/>
      <point x="297" y="313" type="line"/>
      <point x="135" y="313" type="line"/>
      <point x="135" y="176" type="line"/>
    </contour>
    <contour>
      <point x="287" y="490" type="move" name="top"/>
    </contour>
    <contour>
      <point x="452" y="0" type="move" name="bottomright"/>
    </contour>
  </outline>
</glyph>
<glyph name="uni0441" format="1">
  <advance width="460"/>
  <unicode hex="0441"/>
  <outline>
    <component base="c"/>
    <contour>
      <point x="264" y="0" type="move" name="bottomright"/>
    </contour>
  </outline>
</glyph>
<glyph name="uni0444" format="1">
  <advance width="794"/>
  <unicode hex="0444"/>
  <outline>
    <contour>
      <point x="477" y="-217" type="line"/>
      <point x="477" y="739" type="line"/>
      <point x="321" y="739" type="line"/>
      <point x="321" y="-217" type="line"/>
    </contour>
    <contour>
      <point x="291" y="-10"/>
      <point x="348" y="25"/>
      <point x="383" y="86" type="curve"/>
      <point x="354" y="176" type="line"/>
      <point x="338" y="148"/>
      <point x="310" y="130"/>
      <point x="276" y="130" type="curve" smooth="yes"/>
      <point x="224" y="130"/>
      <point x="193" y="174"/>
      <point x="193" y="248" type="curve" smooth="yes"/>
      <point x="193" y="318"/>
      <point x="223" y="360"/>
      <point x="274" y="360" type="curve" smooth="yes"/>
      <point x="307" y="360"/>
      <point x="339" y="341"/>
      <point x="355" y="310" type="curve"/>
      <point x="391" y="415" type="line"/>
      <point x="361" y="471"/>
      <point x="308" y="500"/>
      <point x="244" y="500" type="curve" smooth="yes"/>
      <point x="111" y="500"/>
      <point x="22" y="396"/>
      <point x="22" y="241" type="curve" smooth="yes"/>
      <point x="22" y="89"/>
      <point x="107" y="-10"/>
      <point x="222" y="-10" type="curve" smooth="yes"/>
    </contour>
    <contour>
      <point x="683" y="-10"/>
      <point x="772" y="94"/>
      <point x="772" y="249" type="curve" smooth="yes"/>
      <point x="772" y="400"/>
      <point x="689" y="500"/>
      <point x="570" y="500" type="curve" smooth="yes"/>
      <point x="489" y="500"/>
      <point x="425" y="454"/>
      <point x="393" y="371" type="curve"/>
      <point x="439" y="318" type="line"/>
      <point x="452" y="347"/>
      <point x="480" y="360"/>
      <point x="509" y="360" type="curve" smooth="yes"/>
      <point x="568" y="360"/>
      <point x="601" y="318"/>
      <point x="601" y="243" type="curve" smooth="yes"/>
      <point x="601" y="171"/>
      <point x="572" y="130"/>
      <point x="520" y="130" type="curve" smooth="yes"/>
      <point x="486" y="130"/>
      <point x="455" y="148"/>
      <point x="439" y="181" type="curve"/>
      <point x="391" y="99" type="line"/>
      <point x="420" y="25"/>
      <point x="476" y="-10"/>
      <point x="552" y="-10" type="curve" smooth="yes"/>
    </contour>
  </outline>
</glyph>
<glyph name="uni044B" format="1">
  <advance width="80"/>
  <unicode hex="044B"/>
  <outline>
    <contour>
      <point x="713" y="-3" type="line"/>
      <point x="713" y="490" type="line"/>
      <point x="547" y="490" type="line"/>
      <point x="547" y="-3" type="line"/>
    </contour>
    <contour>
      <point x="255" y="0" type="line" smooth="yes"/>
      <point x="405" y="0"/>
      <point x="494" y="70"/>
      <point x="494" y="187" type="curve" smooth="yes"/>
      <point x="494" y="281"/>
      <point x="415" y="344"/>
      <point x="299" y="344" type="curve" smooth="yes"/>
      <point x="161" y="344" type="line"/>
      <point x="161" y="220" type="line"/>
      <point x="263" y="220" type="line" smooth="yes"/>
      <point x="298" y="220"/>
      <point x="325" y="202"/>
      <point x="325" y="173" type="curve" smooth="yes"/>
      <point x="325" y="144"/>
      <point x="306" y="126"/>
      <point x="275" y="126" type="curve" smooth="yes"/>
      <point x="214" y="126" type="line"/>
      <point x="214" y="490" type="line"/>
      <point x="54" y="490" type="line"/>
      <point x="54" y="0" type="line"/>
    </contour>
    <contour>
      <point x="384" y="490" type="move" name="top"/>
    </contour>
  </outline>
</glyph>
<glyph name="uni045F" format="1">
  <advance width="70"/>
  <unicode hex="045F"/>
  <outline>
    <contour>
      <point x="379" y="-134" type="line"/>
      <point x="379" y="0" type="line"/>
      <point x="544" y="0" type="line"/>
      <point x="544" y="490" type="line"/>
      <point x="379" y="490" type="line"/>
      <point x="379" y="135" type="line"/>
      <point x="219" y="135" type="line"/>
      <point x="219" y="490" type="line"/>
      <point x="54" y="490" type="line"/>
      <point x="54" y="0" type="line"/>
      <point x="223" y="0" type="line"/>
      <point x="223" y="-134" type="line"/>
    </contour>
  </outline>
</glyph>
<glyph name="uni04A5" format="1">
  <advance width="716"/>
  <unicode hex="04A5"/>
  <outline>
    <contour>
      <point x="543" y="0" type="line"/>
      <point x="543" y="490" type="line"/>
      <point x="375" y="490" type="line"/>
      <point x="375" y="0" type="line"/>
    </contour>
    <contour>
      <point x="223" y="0" type="line"/>
      <point x="223" y="490" type="line"/>
      <point x="55" y="490" type="line"/>
      <point x="55" y="0" type="line"/>
    </contour>
    <contour>
      <point x="393" y="179" type="line"/>
      <point x="393" y="314" type="line"/>
      <point x="205" y="314" type="line"/>
      <point x="205" y="179" type="line"/>
    </contour>
    <contour>
      <point x="717" y="357" type="line"/>
      <point x="717" y="490" type="line"/>
      <point x="505" y="490" type="line"/>
      <point x="505" y="357" type="line"/>
    </contour>
  </outline>
</glyph>
<glyph name="uni27E8" format="1">
  <advance width="322"/>
  <unicode hex="27E8"/>
  <outline>
    <contour>
      <point x="311" y="-10" type="line"/>
      <point x="164" y="398" type="line"/>
      <point x="164" y="351" type="line"/>
      <point x="314" y="739" type="line"/>
      <point x="156" y="739" type="line"/>
      <point x="9" y="364" type="line"/>
      <point x="138" y="-10" type="line"/>
    </contour>
  </outline>
</glyph>
<glyph name="uni27E9" format="1">
  <advance width="320"/>
  <unicode hex="27E9"/>
  <outline>
    <contour>
      <point x="182" y="-10" type="line"/>
      <point x="310" y="362" type="line"/>
      <point x="175" y="739" type="line"/>
      <point x="6" y="739" type="line"/>
      <point x="164" y="334" type="line"/>
      <point x="164" y="381" type="line"/>
      <point x="14" y="-10" type="line"/>
    </contour>
  </outline>
</glyph>
<glyph name="acutecomb.case" format="1">
  <advance width="312"/>
  <outline>
    <contour>
      <point x="272" y="849" type="line"/>
      <point x="174" y="983" type="line"/>
      <point x="-5" y="827" type="line"/>
      <point x="63" y="734" type="line"/>
    </contour>
    <contour>
      <point x="-18" y="839" type="move" name="top"/>
    </contour>
    <contour>
      <point x="79" y="694" type="move" name="_top"/>
    </contour>
  </outline>
</glyph>
<glyph name="descenderreverse-cy.case" format="1">
  <advance width="316"/>
  <outline>
    <contour>
      <point x="142" y="-187" type="line"/>
      <point x="142" y="0" type="line"/>
      <point x="205" y="0" type="line"/>
      <point x="205" y="151" type="line"/>
      <point x="-20" y="151" type="line"/>
      <point x="-20" y="-187" type="line"/>
    </contour>
    <contour>
      <point x="201" y="0" type="move" name="_bottomright"/>
    </contour>
  </outline>
</glyph>
<glyph name="one.dnom" format="1">
  <advance width="74"/>
  <note>
    one
  </note>
  <outline>
    <contour>
      <point x="288" y="115" type="line"/>
      <point x="288" y="479" type="line"/>
      <point x="199" y="479" type="line"/>
      <point x="10" y="379" type="line"/>
      <point x="66" y="271" type="line"/>
      <point x="185" y="323" type="line"/>
      <point x="139" y="371" type="line"/>
      <point x="139" y="115" type="line"/>
    </contour>
    <contour>
      <point x="379" y="0" type="line"/>
      <point x="379" y="128" type="line"/>
      <point x="41" y="128" type="line"/>
      <point x="41" y="0" type="line"/>
    </contour>
  </outline>
</glyph>
<glyph name="seven.dnom" format="1">
  <advance width="74"/>
  <note>
    seven
  </note>
  <outline>
    <contour>
      <point x="198" y="0" type="line"/>
      <point x="401" y="389" type="line"/>
      <point x="401" y="479" type="line"/>
      <point x="7" y="479" type="line"/>
      <point x="7" y="349" type="line"/>
      <point x="267" y="349" type="line"/>
      <point x="245" y="385" type="line"/>
      <point x="40" y="0" type="line"/>
    </contour>
  </outline>
</glyph>
<glyph name="slashlongcomb.case" format="1">
  <advance width="533"/>
  <outline>
    <contour>
      <point x="588" y="681" type="line"/>
      <point x="484" y="744" type="line"/>
      <point x="-6" y="-4" type="line"/>
      <point x="95" y="-67" type="line"/>
    </contour>
    <contour>
      <point x="311" y="339" type="move" name="_center"/>
    </contour>
  </outline>
</glyph>
<glyph name="uni0306.loclVIET" format="1">
  <advance width="0"/>
  <outline>
    <contour>
      <point x="317" y="519"/>
      <point x="393" y="575"/>
      <point x="410" y="662" type="curve"/>
      <point x="333" y="715" type="line"/>
      <point x="328" y="671"/>
      <point x="289" y="640"/>
      <point x="239" y="640" type="curve" smooth="yes"/>
      <point x="195" y="640"/>
      <point x="153" y="668"/>
      <point x="133" y="712" type="curve"/>
      <point x="25" y="648" type="line"/>
      <point x="38" y="573"/>
      <point x="118" y="519"/>
      <point x="217" y="519" type="curve" smooth="yes"/>
    </contour>
    <contour>
      <point x="225" y="630" type="move" name="top"/>
    </contour>
    <contour>
      <point x="225" y="490" type="move" name="_top"/>
    </contour>
  </outline>
</glyph>
<glyph name="uni0307.case" format="1">
  <advance width="288"/>
  <outline>
    <component base="uni0307" xOffset="-28" yOffset="190"/>
    <contour>
      <point x="145" y="946" type="move" name="top"/>
    </contour>
    <contour>
      <point x="145" y="694" type="move" name="_top"/>
    </contour>
  </outline>
</glyph>
<glyph name="uni0307.loclVIET" format="1">
  <advance width="288"/>
  <outline>
    <contour>
      <point x="198" y="536"/>
      <point x="234" y="572"/>
      <point x="234" y="626" type="curve" smooth="yes"/>
      <point x="234" y="681"/>
      <point x="198" y="717"/>
      <point x="144" y="717" type="curve" smooth="yes"/>
      <point x="90" y="717"/>
      <point x="54" y="681"/>
      <point x="54" y="626" type="curve" smooth="yes"/>
      <point x="54" y="572"/>
      <point x="90" y="536"/>
      <point x="144" y="536" type="curve" smooth="yes"/>
    </contour>
    <contour>
      <point x="144" y="676" type="move" name="top"/>
    </contour>
    <contour>
      <point x="144" y="490" type="move" name="_top"/>
    </contour>
  </outline>
</glyph>
<glyph name="uni030C.alt" format="1">
  <advance width="238"/>
  <outline>
    <contour>
      <point x="188" y="739" type="line"/>
      <point x="64" y="754" type="line"/>
      <point x="52" y="553" type="line"/>
      <point x="142" y="540" type="line"/>
    </contour>
    <contour>
      <point x="118" y="490" type="move" name="_topright"/>
    </contour>
  </outline>
</glyph>
<glyph name="uni030C.case" format="1">
  <advance width="417"/>
  <outline>
    <component base="uni030C" xOffset="6" yOffset="195"/>
    <contour>
      <point x="249" y="888" type="move" name="top"/>
    </contour>
    <contour>
      <point x="214" y="694" type="move" name="_top"/>
    </contour>
  </outline>
</glyph>
